<?xml version="1.0" encoding="utf-8"?>
<!-- Generator: Adobe Illustrator 24.3.0, SVG Export Plug-In . SVG Version: 6.00 Build 0)  -->
<svg version="1.1" id="Guide" xmlns="http://www.w3.org/2000/svg" xmlns:xlink="http://www.w3.org/1999/xlink" x="0px" y="0px"
	 viewBox="0 0 30.1 30" style="enable-background:new 0 0 30.1 30;" xml:space="preserve">
<style type="text/css">
	.st0{fill:none;}
	.st1{fill:#FFFFFF;}
</style>
<rect x="-289.9" y="382" class="st0" width="30" height="30"/>
<g id="Layer_3">
	<path class="st1" d="M30,9.4V5.6c0-1-0.9-1.9-1.9-1.9H1.9C0.9,3.7,0,4.6,0,5.6l0,0v3.8c3.1,0,5.6,2.5,5.6,5.6S3.1,20.6,0,20.6v3.8
		c0,1,0.9,1.9,1.9,1.9h26.3c1,0,1.9-0.9,1.9-1.9v-3.8c-3.1,0-5.6-2.5-5.5-5.6C24.5,12,26.9,9.5,30,9.4L30,9.4L30,9.4L30,9.4z
		 M11.2,24.4H9.3v-3.8h1.9V24.4z M11.2,16.9H9.3v-3.8h1.9V16.9z M11.2,9.4H9.3V5.6h1.9V9.4z"/>
</g>
</svg>
