<?xml version="1.0" encoding="utf-8"?>
<!-- Generator: Adobe Illustrator 24.3.0, SVG Export Plug-In . SVG Version: 6.00 Build 0)  -->
<svg version="1.1" id="Layer_1" xmlns="http://www.w3.org/2000/svg" xmlns:xlink="http://www.w3.org/1999/xlink" x="0px" y="0px"
	 viewBox="0 0 300 300" style="enable-background:new 0 0 300 300;" xml:space="preserve">
<style type="text/css">
	.st0{fill:#FFFFFF;}
</style>
<g>
	<g>
		<path class="st0" d="M77.6,105.9c-1.8-13.2,2.6-27.4,11.5-37.9c15.9-19.4,37.1-18.5,37.9-19.4c-0.9-0.9-7.1-12.4-15.9-5.3
			l-98.8,75.9c-1.8,1.8-3.5,3.5-3.5,6.2c0,2.6,0,4.4,1.8,7.1l24.7,30c1.8,2.6,4.4,3.5,7.1,3.5c1.8,0,3.5-0.9,5.3-1.8l33.5-25.6
			L77.6,105.9z"/>
	</g>
	<g>
		<path class="st0" d="M211.8,40.6c-2.6-3.5-8.8-4.4-12.4-0.9l-11.5,8.8c2.6,1.8,4.4,3.5,7.1,6.2c78.5,95.3,78.5,92.6,82.1,100.6
			c8.8-7.9,14.1-8.8,14.1-15C292.1,134.1,290.3,136.8,211.8,40.6z"/>
	</g>
	<g>
		<path class="st0" d="M180.9,65.3c-1.8-1.8-4.4-3.5-7.9-2.6l-47.6,4.4c-8.8,0.9-17.6,5.3-22.9,12.4c-5.3,7.1-7.9,15.9-7.1,24.7
			l4.4,46.8c1.8,14.1,12.4,23.8,25.6,23.8c6.2,0,13.2-2.6,17.6-7.9c3.5-4.4,5.3-9.7,5.3-15v-30.9c0-1.8,0-2.6,0.9-3.5
			c0.9-0.9,2.6-0.9,3.5,0.9c88.2,105,52.9,83.8,103.2,53.8c1.8-1.8,2.6-3.5,3.5-6.2c0-2.6-0.9-4.4-1.8-7.1L180.9,65.3z"/>
	</g>
	<g>
		<path class="st0" d="M165.9,160.6c-1.8,6.2-4.4,12.4-9.7,17.6c-7.9,8.8-19.4,14.1-30.9,14.1c-20.3,0-37.9-14.1-42.4-33.5
			l-25.6,19.4c-2.6,1.8-4.4,2.6-7.1,3.5l25.6,31.8l32.6,40.6c12.4,15.9,35.3,5.3,40.6-8.8c7.9,1.8,22.1-7.9,25.6-16.8
			c0.9,0,7.9,0.9,14.1-4.4l4.4-3.5c3.5-2.6,5.3-5.3,7.1-8.8c1.8,0,5.3,0,8.8-1.8C205.6,209.1,202.1,204.7,165.9,160.6z"/>
	</g>
</g>
</svg>
