<?xml version="1.0" encoding="utf-8"?>
<!-- Generator: Adobe Illustrator 24.3.0, SVG Export Plug-In . SVG Version: 6.00 Build 0)  -->
<svg version="1.1" id="Guide" xmlns="http://www.w3.org/2000/svg" xmlns:xlink="http://www.w3.org/1999/xlink" x="0px" y="0px"
	 viewBox="0 0 30 30" style="enable-background:new 0 0 30 30;" xml:space="preserve">
<style type="text/css">
	.st0{fill:none;}
	.st1{fill:#FFFFFF;}
</style>
<g>
	<rect class="st0" width="30" height="30"/>
	<circle class="st1" cx="15" cy="22.2" r="1.5"/>
	<path class="st1" d="M15,0C6.7,0,0,6.7,0,15s6.7,15,15,15s15-6.7,15-15l0,0c0-8.3-6.6-15-14.9-15H15z M15,27.6
		C8,27.6,2.4,21.9,2.4,15C2.4,8,8.1,2.4,15,2.4c7,0,12.6,5.7,12.6,12.6l0,0C27.6,22,22,27.6,15,27.6L15,27.6z"/>
	<path class="st1" d="M15,7.5c-2.6,0-4.7,2.1-4.7,4.7c0,0.6,0.5,1.2,1.2,1.2s1.2-0.5,1.2-1.2l0,0c0-1.3,1-2.3,2.3-2.3s2.3,1,2.3,2.3
		s-1,2.3-2.3,2.3l0,0c-0.6,0-1.2,0.5-1.2,1.2l0,0v2.9c0,0.6,0.5,1.2,1.2,1.2s1.2-0.5,1.2-1.2l0,0v-1.9c2.5-0.6,4-3.2,3.4-5.7
		C19.1,9,17.2,7.5,15,7.5z"/>
</g>
</svg>
