<?xml version="1.0" encoding="utf-8"?>
<!-- Generator: Adobe Illustrator 19.1.0, SVG Export Plug-In . SVG Version: 6.00 Build 0)  -->
<svg version="1.1" id="Layer_2" xmlns="http://www.w3.org/2000/svg" xmlns:xlink="http://www.w3.org/1999/xlink" x="0px" y="0px"
	 viewBox="-5 21 50 45" style="enable-background:new -5 21 50 45;" xml:space="preserve">
<style type="text/css">
	.st0{fill:#FFFFFF;}
</style>
<title>notice-icon</title>
<path class="st0" d="M17.1,50.6l14.3,7.6v-31l-14.3,7.5V50.6z"/>
<path class="st0" d="M36.4,41.4h5v2.5h-5V41.4z"/>
<path class="st0" d="M39.4,33.3l1,2.3l-4.7,1.9l-1-2.3L39.4,33.3z"/>
<path class="st0" d="M39.4,52l-4.7-1.9l1-2.3l4.7,1.9L39.4,52z"/>
<path class="st0" d="M14.5,35.5h-11V38H3.1c-2.5,0.1-4.5,2.3-4.4,4.8c0.1,2.4,2,4.3,4.4,4.4h0.4v2.5h2.8l2.8,10.1h8.2l-2.8-9.6V35.5
	z"/>
</svg>
