<?xml version="1.0" encoding="utf-8"?>
<!-- Generator: Adobe Illustrator 24.3.0, SVG Export Plug-In . SVG Version: 6.00 Build 0)  -->
<svg version="1.1" id="Layer_1" xmlns="http://www.w3.org/2000/svg" xmlns:xlink="http://www.w3.org/1999/xlink" x="0px" y="0px"
	 viewBox="0 0 300 300" style="enable-background:new 0 0 300 300;" xml:space="preserve">
<style type="text/css">
	.st0{fill:#FFFFFF;}
</style>
<path class="st0" d="M150,15C75.4,15,15,75.4,15,150s60.4,135,135,135s135-60.4,135-135S224.6,15,150,15z M153,72
	c10,0,18.2,8.1,18.2,18.2c0,10-8.1,18.2-18.2,18.2s-18.2-8.1-18.2-18.2C134.8,80.1,143,72,153,72z M179.9,216.3L179.9,216.3
	c0,3.1-2.6,5.7-5.7,5.7h-42.5c-3.1,0-5.7-2.5-5.7-5.7V205c0-3.1,2.5-5.7,5.7-5.7h7.2v-56.8h-7.2c-3.1,0-5.7-2.5-5.7-5.7v-11.4
	c0-3.1,2.5-5.7,5.7-5.7h29.6c3.1,0,5.7,2.5,5.7,5.7v73.9h7.2c3.1,0,5.7,2.5,5.7,5.7V216.3L179.9,216.3z"/>
</svg>
