<?xml version="1.0" encoding="utf-8"?>
<!-- Generator: Adobe Illustrator 19.1.0, SVG Export Plug-In . SVG Version: 6.00 Build 0)  -->
<svg version="1.1" id="Layer_2" xmlns="http://www.w3.org/2000/svg" xmlns:xlink="http://www.w3.org/1999/xlink" x="0px" y="0px"
	 viewBox="-5 21 50 45" style="enable-background:new -5 21 50 45;" xml:space="preserve">
<style type="text/css">
	.st0{fill:#FFFFFF;}
</style>
<title>promo-icon</title>
<path class="st0" d="M41,37.6c-0.2-0.2-0.4-0.3-0.6-0.3H28.2c1.6,0,3.2-0.6,4.4-1.8c1.2-1.1,1.8-2.7,1.8-4.4c0-1.6-0.6-3.2-1.8-4.4
	c-1.1-1.2-2.7-1.8-4.4-1.8c-1.8-0.1-3.5,0.7-4.6,2.1L20,31.6l-3.5-4.6c-1.1-1.4-2.8-2.2-4.6-2.1c-1.6,0-3.2,0.6-4.4,1.8
	c-1.2,1.1-1.8,2.7-1.8,4.4c0,1.6,0.6,3.2,1.8,4.4c1.1,1.2,2.7,1.8,4.4,1.8H-0.3c-0.5,0-0.9,0.3-0.9,0.8c0,0,0,0,0,0.1V47
	c0,0.5,0.3,0.9,0.8,0.9c0,0,0,0,0.1,0h2.7v11.5c0,1.5,1.1,2.7,2.6,2.7c0,0,0.1,0,0.1,0h30c1.5,0,2.6-1.2,2.7-2.6c0,0,0,0,0,0V47.9
	h2.7c0.5,0,0.9-0.3,0.9-0.8c0,0,0-0.1,0-0.1v-8.8C41.2,38,41.2,37.7,41,37.6z M26.3,29.3c0.5-0.6,1.2-0.9,1.9-0.9
	c1.5,0,2.6,1.2,2.7,2.6c0,0,0,0,0,0c0,1.5-1.2,2.6-2.6,2.7c0,0,0,0,0,0h-5.4L26.3,29.3z M11.8,33.8c-1.5,0-2.6-1.2-2.6-2.6
	c0,0,0,0,0,0c0-1.5,1.2-2.6,2.6-2.6c0,0,0,0,0,0c0.7,0,1.4,0.3,1.9,0.9l3.5,4.4L11.8,33.8L11.8,33.8z M24.4,42.6v14.5
	c0,0.4-0.2,0.8-0.5,1.1c-0.4,0.3-0.8,0.4-1.3,0.4h-5.3c-0.5,0-0.9-0.1-1.3-0.4c-0.3-0.2-0.5-0.6-0.5-1.1V37.3h8.8V42.6L24.4,42.6z"
	/>
</svg>
