<?xml version="1.0" encoding="utf-8"?>
<!-- Generator: Adobe Illustrator 19.1.0, SVG Export Plug-In . SVG Version: 6.00 Build 0)  -->
<svg version="1.1" id="Layer_2" xmlns="http://www.w3.org/2000/svg" xmlns:xlink="http://www.w3.org/1999/xlink" x="0px" y="0px"
	 viewBox="-5 21 50 45" style="enable-background:new -5 21 50 45;" xml:space="preserve">
<style type="text/css">
	.st0{fill:#FFFFFF;}
</style>
<title>live-chat-icon</title>
<path class="st0" d="M44.7,39.1c0-9.5-9.2-17.2-20.5-17.2S3.8,29.6,3.8,39.1s9.2,17.2,20.5,17.2c0.9,0,1.9-0.1,2.8-0.2
	c4.3,2.8,7.6,4.3,9.5,4.5h0.2c1,0,1.9-0.9,1.9-1.9c0-0.3-0.1-0.6-0.2-0.9c-0.9-1.7-1.3-3.6-1.1-5.5C42,49,44.7,44.2,44.7,39.1z
	 M18.7,41.7c-1.7,0-3-1.3-3-3s1.3-3,3-3s3,1.3,3,3C21.7,40.3,20.4,41.7,18.7,41.7C18.7,41.7,18.7,41.7,18.7,41.7L18.7,41.7z
	 M29.8,41.7c-1.7,0-3-1.3-3-3s1.3-3,3-3s3,1.3,3,3C32.8,40.3,31.5,41.7,29.8,41.7C29.8,41.7,29.8,41.7,29.8,41.7L29.8,41.7z"/>
<path class="st0" d="M8.1,52.8c-2-1.6-3.6-3.6-4.8-5.8c-2.4-4.6-2.4-10.1,0-14.7l0.3-0.5c-5,2.9-8.3,7.7-8.3,13.1
	c0,4.9,2.6,9.4,7.2,12.4c0.9,3.3-1.1,6.9-1.1,6.9c-0.2,0.3-0.1,0.7,0.2,0.9c0.1,0.1,0.2,0.1,0.3,0.1H2c2.3-0.3,6.3-2.6,9.4-4.5
	c1,0.1,2.1,0.2,3.1,0.2c3.8,0,7.5-1,10.8-2.8c-0.7,0.1-1.4,0.1-2.1,0.1C17.7,58.1,12.4,56.3,8.1,52.8z"/>
</svg>
